<svg width="16" height="16" viewBox="0 0 16 16" fill="none" xmlns="http://www.w3.org/2000/svg">
<path opacity="0.3" d="M4.99999 3.42856C4.99999 2.79738 4.55227 2.28571 3.99999 2.28571C3.4477 2.28571 2.99998 2.79738 2.99998 3.42856L2.99998 14.8571C2.99998 15.4883 3.4477 16 3.99999 16C4.55227 16 4.99999 15.4883 4.99999 14.8571L4.99999 3.42856Z" fill="black"/>
<path d="M1.70709 5.37954C1.31656 5.82583 0.6834 5.82583 0.292868 5.37954C-0.0976226 4.93326 -0.0976226 4.2096 0.292868 3.76331L3.29288 0.334742C3.68341 -0.111544 4.31657 -0.111544 4.7071 0.334742L7.70711 3.76331C8.09763 4.2096 8.09763 4.93326 7.70711 5.37954C7.31658 5.82583 6.68342 5.82583 6.29289 5.37954L3.99999 2.75908L1.70709 5.37954Z" fill="black"/>
<path opacity="0.3" d="M6.66667 15C6.29848 15 6 14.7761 6 14.5C6 14.2239 6.29848 14 6.66667 14L13.3333 14C13.7015 14 14 14.2239 14 14.5C14 14.7761 13.7015 15 13.3333 15L6.66667 15Z" fill="black"/>
<path opacity="0.3" d="M6.5 13C6.22386 13 6 12.7761 6 12.5C6 12.2239 6.22386 12 6.5 12L11.5 12C11.7761 12 12 12.2239 12 12.5C12 12.7761 11.7761 13 11.5 13L6.5 13Z" fill="black"/>
<path opacity="0.3" d="M6.33333 11C6.14924 11 6 10.7761 6 10.5C6 10.2239 6.14924 10 6.33333 10H9.66667C9.85076 10 10 10.2239 10 10.5C10 10.7761 9.85076 11 9.66667 11H6.33333Z" fill="black"/>
<path opacity="0.3" d="M6.16667 9C6.07462 9 6 8.77614 6 8.5C6 8.22386 6.07462 8 6.16667 8H7.83333C7.92538 8 8 8.22386 8 8.5C8 8.77614 7.92538 9 7.83333 9H6.16667Z" fill="black"/>
</svg>
