<svg width="14" height="16" viewBox="0 0 14 16" fill="none" xmlns="http://www.w3.org/2000/svg">
<path opacity="0.3" d="M3.00001 12.5714C3.00001 13.2026 3.44773 13.7143 4.00001 13.7143C4.5523 13.7143 5.00002 13.2026 5.00002 12.5714L5.00002 1.14286C5.00002 0.51168 4.5523 5.72205e-06 4.00001 5.72205e-06C3.44773 5.72205e-06 3.00001 0.51168 3.00001 1.14286L3.00001 12.5714Z" fill="black"/>
<path d="M6.29291 10.6205C6.68344 10.1742 7.3166 10.1742 7.70713 10.6205C8.09762 11.0667 8.09762 11.7904 7.70713 12.2367L4.70712 15.6653C4.31659 16.1115 3.68343 16.1115 3.2929 15.6653L0.292891 12.2367C-0.0976303 11.7904 -0.0976303 11.0667 0.292891 10.6205C0.683422 10.1742 1.31658 10.1742 1.70711 10.6205L4.00001 13.2409L6.29291 10.6205Z" fill="black"/>
<path opacity="0.3" d="M6.66667 1C6.29848 1 6 1.22386 6 1.5C6 1.77614 6.29848 2 6.66667 2L13.3333 2C13.7015 2 14 1.77614 14 1.5C14 1.22386 13.7015 1 13.3333 1L6.66667 1Z" fill="black"/>
<path opacity="0.3" d="M6.5 3C6.22386 3 6 3.22386 6 3.5C6 3.77614 6.22386 4 6.5 4L11.5 4C11.7761 4 12 3.77614 12 3.5C12 3.22386 11.7761 3 11.5 3L6.5 3Z" fill="black"/>
<path opacity="0.3" d="M6.33333 5C6.14924 5 6 5.22386 6 5.5C6 5.77614 6.14924 6 6.33333 6L9.66667 6C9.85076 6 10 5.77614 10 5.5C10 5.22386 9.85076 5 9.66667 5L6.33333 5Z" fill="black"/>
<path opacity="0.3" d="M6.16667 7C6.07462 7 6 7.22386 6 7.5C6 7.77614 6.07462 8 6.16667 8H7.83333C7.92538 8 8 7.77614 8 7.5C8 7.22386 7.92538 7 7.83333 7H6.16667Z" fill="black"/>
</svg>
