<svg width="16" height="16" viewBox="0 0 16 16" fill="none" xmlns="http://www.w3.org/2000/svg">
<path opacity="0.3" d="M6.85714 14.6667C6.85714 15.403 7.36882 16 8 16C8.63118 16 9.14286 15.403 9.14286 14.6667L9.14286 1.33333C9.14286 0.596953 8.63118 0 8 0C7.36882 0 6.85714 0.596953 6.85714 1.33333L6.85714 14.6667Z" fill="black"/>
<ellipse cx="13.7143" cy="7.46667" rx="2.13333" ry="2.28571" transform="rotate(-90 13.7143 7.46667)" fill="black"/>
<path opacity="0.3" d="M12.5714 14.6667C12.5714 15.403 13.0831 16 13.7143 16C14.3455 16 14.8571 15.403 14.8571 14.6667L14.8571 1.33333C14.8571 0.596952 14.3455 0 13.7143 0C13.0831 0 12.5714 0.596952 12.5714 1.33333L12.5714 14.6667Z" fill="black"/>
<ellipse cx="2.28571" cy="4.26666" rx="2.13333" ry="2.28571" transform="rotate(-90 2.28571 4.26666)" fill="black"/>
<path opacity="0.3" d="M1.14286 14.6667C1.14286 15.403 1.65453 16 2.28571 16C2.9169 16 3.42857 15.403 3.42857 14.6667L3.42857 1.33333C3.42857 0.596953 2.9169 0 2.28571 0C1.65453 0 1.14286 0.596953 1.14286 1.33333L1.14286 14.6667Z" fill="black"/>
<ellipse cx="8" cy="11.7333" rx="2.13333" ry="2.28571" transform="rotate(-90 8 11.7333)" fill="black"/>
</svg>
