<svg width="16" height="16" viewBox="0 0 16 16" fill="none" xmlns="http://www.w3.org/2000/svg">
<path opacity="0.3" d="M11 3.42858C11 2.7974 11.4477 2.28572 12 2.28572C12.5522 2.28572 13 2.7974 13 3.42858V14.8571C13 15.4883 12.5522 16 12 16C11.4477 16 11 15.4883 11 14.8571V3.42858Z" fill="black"/>
<path d="M14.2929 5.37955C14.6834 5.82583 15.3166 5.82583 15.7071 5.37955C16.0976 4.93323 16.0976 4.20962 15.7071 3.7633L12.7071 0.334731C12.3166 -0.111577 11.6834 -0.111577 11.2929 0.334731L8.29286 3.7633C7.90236 4.20962 7.90236 4.93323 8.29286 5.37955C8.68336 5.82583 9.31656 5.82583 9.70706 5.37955L12 2.7591L14.2929 5.37955Z" fill="black"/>
<path opacity="0.3" d="M3 12.5714C3 13.2026 3.44772 13.7143 4 13.7143C4.55228 13.7143 5 13.2026 5 12.5714L5 1.14286C5 0.511677 4.55228 1.90735e-06 4 1.90735e-06C3.44772 1.90735e-06 3 0.511677 3 1.14286L3 12.5714Z" fill="black"/>
<path d="M6.29289 10.6205C6.68342 10.1742 7.31658 10.1742 7.70711 10.6205C8.0976 11.0667 8.0976 11.7904 7.70711 12.2367L4.70711 15.6652C4.31658 16.1115 3.68342 16.1115 3.29289 15.6652L0.29289 12.2367C-0.09763 11.7904 -0.09763 11.0667 0.29289 10.6205C0.68342 10.1742 1.31658 10.1742 1.70711 10.6205L4 13.2409L6.29289 10.6205Z" fill="black"/>
</svg>
